<?xml version="1.0" encoding="UTF-8"?>
<svg id="Capa_1" data-name="Capa 1" xmlns="http://www.w3.org/2000/svg" viewBox="0 0 1200 1200">
  <defs>
    <style>
      .cls-1 {
        fill: #ffecc7;
      }

      .cls-2 {
        fill: #78559a;
      }
    </style>
  </defs>
  <rect class="cls-1" width="1200" height="1200"/>
  <path class="cls-2" d="m747.35,616.57c-16.5-5.9-33.51-10.4-55.52-17.15,25.25-8.12,46.89-13.65,67.42-21.92,98.18-39.56,140.55-139.93,100.29-237.81-28.74-69.86-89.18-102.6-157.2-109.43-109.51-10.99-220.12-11.69-330.33-14.51-33.35-.85-46.52,23.01-46.52,54.34-.06,218.67-.42,437.34.24,656.01.13,42.57,15.6,56.69,58.48,57,71.71.53,143.63,3.04,215.07-1.47,49.88-3.15,100.65-11.67,148.29-26.54,84.84-26.48,124.62-84.25,124.61-167.09,0-85.49-40.47-141.29-124.83-171.44Zm-161.76,147.52c-27.28-.63-49.34-24.07-50-53.11-.7-30.81,21.83-55.87,50.53-56.22,28.75-.34,51.8,24.15,51.75,54.96-.05,30.48-23.65,55.03-52.28,54.36Zm.96-222.65c-28.44,0-49.62-21.5-50.72-51.48-1.15-31.16,20.31-55.87,49.29-56.76,29.02-.89,52.2,22.64,52.79,53.58.58,30.78-21.86,54.67-51.36,54.67Z"/>
</svg>