<?xml version="1.0" encoding="utf-8"?>
<!-- Generator: Adobe Illustrator 19.2.0, SVG Export Plug-In . SVG Version: 6.00 Build 0)  -->
<svg version="1.1" id="Capa_1" xmlns="http://www.w3.org/2000/svg" xmlns:xlink="http://www.w3.org/1999/xlink" x="0px" y="0px"
	 viewBox="0 0 841.9 595.3" style="enable-background:new 0 0 841.9 595.3;" xml:space="preserve">
<style type="text/css">
	.st0{fill:#F07E1A;}
	.st1{fill:#AB4A17;}
</style>
<g>
	<g>
		<path class="st0" d="M671.8,423c0,0,0-0.1,0.1-0.1c0.2-0.1,0.3-0.1,0.5-0.2c2.1-0.8,3.8-2.1,4.5-4.3c1.4-4.7-0.3-10.8-7.9-11.4
			c-2-0.2-4.1-0.2-6.2-0.2c-2.8,0-5.6,0.1-8.4,0.1c-2.2,0-3.7,1.6-3.6,3.7c0.1,1.3,0.5,2.7,0.8,4c0.2,0.9,0.9,1.9,0.9,2.8
			c-0.1,4.6,0.7,9.3-0.8,13.9c-0.2,0.7-0.2,1.5-0.2,2.3c0,1.3,0.7,2.2,1.9,2.3c1.2,0.1,2.5,0.3,3.8,0.3c0.5,0,1,0,1.5-0.1
			c3.3-0.4,4-1.7,3-4.9c-0.2-0.8-0.4-1.6-0.5-2.4c-0.1-0.9,0.3-1.4,1.2-1.6c0.3-0.1,0.7-0.1,1-0.1c1.7,0,2.8,0.8,3.5,2.6
			c0.5,1.3,0.9,2.7,1.4,4c0.5,1.3,1.4,2.2,2.8,2.3c0.9,0.1,1.7,0.1,2.6,0.1c0.6,0,1.2,0,1.8-0.1c1.9-0.2,3.1-1.3,2.8-2.6
			C677.4,429.4,675.8,425.5,671.8,423z M668,417.6c-0.1,1.4-0.8,2.3-2.1,2.8c-0.2,0.1-0.5,0.2-0.7,0.2c-0.8,0.1-1.5,0.1-2.1,0.1
			c-1.8,0-2-0.6-2-3.9c0-2.4,0.2-3.1,1.8-3.1c0.4,0,0.9,0,1.6,0.1C667.1,414.1,668.2,415.2,668,417.6z"/>
		<path class="st0" d="M664.5,394.2c-0.1,0-0.1,0-0.2,0c-15,0-27.4,12.5-27.5,27.5c-0.1,15.1,12.4,27.6,27.6,27.6c0.1,0,0.1,0,0.2,0
			c15,0,27.4-12.4,27.4-27.5C692.1,406.7,679.8,394.3,664.5,394.2z M664.5,444.2C664.5,444.2,664.5,444.2,664.5,444.2
			c-12.3,0-22.4-10.2-22.4-22.3c0-12.1,10.2-22.3,22.2-22.3c0.1,0,0.2,0,0.2,0c12.4,0.1,22.3,10.1,22.2,22.4
			C686.8,434.1,676.7,444.2,664.5,444.2z"/>
	</g>
	<g>
		<path class="st0" d="M790.5,202.7L790.5,202.7c-4.3-1.1-8.6-1.3-12.5-1.3h-0.2c-11.6,0-20.6,6.1-24.8,16.7
			c-5.2,0-9.7,1.5-13.3,4.2c0.8-4.4,1.7-9,2.6-13.8c0.8,0,1.6,0,2.4,0l0.6,0c1.3,0,2.5,0,3.8,0.1h0.2c7.7,0,14.4-3.4,18.9-9.7
			c6.6-9.3,8.7-20.2,6.3-32.5c-2.3-11.8-11.8-19.5-24.2-19.5h-0.1c-4.1,0-8.1,0.2-12,0.4l-0.2,0c-3.9,0.2-7.9,0.3-11.8,0.4h-0.2
			c-6.5,0-13.1-0.2-19.5-0.4v-0.4h-9.7c-0.5,0-1,0-1.5,0l-0.1,0c-1.5,0-3.1-0.1-5,0.1c-8.5,0.7-15.5,4-20.8,9.6
			c-2.4-4.7-6.8-8.2-12.5-9.7c-3.4-0.9-6.9-1.3-10.2-1.3c-6.6,0.1-13.2,0.3-19.5,0.5l-2.6,0.1c-3.2,0.1-6.4,0.3-9.6,0.4l-0.1,0
			c-5.5,0.3-11.2,0.5-16.7,0.6c-9.9,0.1-20,0-30.1-0.3c-3.2-0.1-6.7-0.4-10-0.7c-3.6-0.3-7.7-0.6-11.8-0.7
			c-8.8-0.2-16.1,2.5-21.6,8.1c-2.3-3.3-5.7-5.9-9.8-7.2c-6-1.9-12.2-2.3-18.4-1.1c-5.2,1-9.6,3.6-12.9,7.5
			c-3.5-1.7-7.2-3.4-11.4-4.5c-14.8-3.8-29.9-3.7-44.7,0.4c-14.9,4.1-27.3,11.3-37.1,21.5c-9.5,4.5-17.5,10.6-24.1,18.4
			c-1.4-6.2-2.8-12.5-4.2-18.7c-3.2-14-13.3-22.9-26.9-23.9c-6.3-0.5-12.2-0.4-17.8,0.2c-14.4,1.5-28.8,1.5-42.7,0
			c-4.9-0.5-9.8-0.7-14.6-0.4c-11.6,0.6-21.3,6.8-26.3,16.8c-3.7,0.4-7.1,1.5-10.1,3.2c-1.8-3.1-4.2-5.9-7-8.5
			c-8.1-7.5-18.5-11.3-31-11.5c-6.4-0.1-12.7,0.2-18.8,0.4c-3.5,0.1-7.1,0.3-10.7,0.4l-2.3,0.1c-8.5,0.2-17.3,0.4-25.9,0.3
			c-5.1-0.1-10.3-0.3-15.4-0.6c-4.2-0.2-8.5-0.4-12.8-0.6c-7.4-0.3-13.1,3.1-16.8,5.7c-3.6,2.5-6.7,6.3-8.9,10.9
			c-5.6,0.1-10.1,2.8-13.1,4.9c-10.2,7.1-13.3,25.5-8.7,35.5c3,6.6,8.5,10.3,15.5,10.3c2.8,0,5.7,0,8.5,0l1.5,0c0,0.6,0,1.2-0.1,1.8
			c-0.1,2.6-0.2,5-0.5,7.3c-0.8,5-1.8,10.4-3,16.8c-6.8,2.4-12,7.3-15.1,14.2c-0.1,0.2-0.2,0.5-0.3,0.7c-0.3,0-0.6,0-0.9,0.1
			c-9,0.6-15.7,5.2-19.2,13.1c-2.7,6-2.8,12.1-2.5,17.3c0.3,6.7,2.6,12.2,6.7,15.8c3.8,3.4,8.9,5,14.8,4.6c4.2-0.3,8.5-0.6,12.6-0.9
			c3.9-0.3,7.9-0.6,11.9-0.9c11.1-0.7,22.6,0.1,33.7,0.8c4.6,0.3,9.4,0.6,14.1,0.8c11.2,0.5,24.3,0.3,36.9-4.8
			c2-0.8,3.9-1.7,5.8-2.8c4.9-0.5,9.4-1.3,13.7-2.5c2.8,5.2,8,8.9,14.2,9.8c3.2,0.5,6.4,0.3,9.4,0c1-0.1,2.1-0.2,3.1-0.2
			c0.2,0,0.4,0,0.6,0c-0.6,1-1.2,2.1-1.7,3.2c-5.3,0.1-9.7,2.6-12.6,4.5c-11.6,7.8-13.4,27.1-9,36.3c3.1,6.5,8.3,9.9,15,9.9
			c1.7,0,3.4,0,5.2,0c1.7,0,3.4,0,5.1,0l0,0.3c-0.1,3.2-0.2,6.2-0.7,9.1c-0.9,5-1.8,10.3-3,16.4c-6.7,2.4-11.9,7.2-15,14
			c-0.1,0.3-0.3,0.6-0.4,1c-0.4,0-0.8,0-1.2,0.1c-8.7,0.7-15.2,5.2-18.7,12.9c-2.8,6.2-2.9,12.5-2.6,18.4
			c0.5,11.8,8.4,19.6,19.9,19.6c0.1,0,0.2,0,0.3,0c6.1-0.1,12.5-0.5,18.8-1.2c14.7-1.6,29.8-0.6,44.4,0.4l0.5,0
			c13.4,0.9,25.6,1.5,38-1.5c5.3-1.2,10.3-3.1,14.8-5.6c3.9-0.4,7.5-1,11-1.8c8.6-2,16-5.4,22.3-10.1c1.4,1.5,2.9,3,4.5,4.3
			c8.8,7.6,19.7,12.5,32.6,14.7c6.4,1.1,12.7,1.6,18.8,1.6c13.9,0,27.1-2.8,39.3-8.3c12-1.7,23.5-5.5,34.1-11.5
			c6.1-3.4,11.6-7.5,16.4-12.2c-1.1,4.6-1.2,9.6-0.3,14.9c1.5,8.7,7.2,14.6,15.5,15.8c2.6,0.4,5.4,0.5,8.6,0.3
			c2.7-0.2,5.4-0.4,8-0.7c4.6-0.5,9-0.9,13.4-0.8c12.2,0.1,24.4,0.9,34.7,1.7c9.2,0.7,17.2-1.9,22.7-7.4l1.6,0.1
			c1,0.1,2.1,0.1,3.2,0.1c14.5,0,25.8-7.6,30.4-20.3c2.6-7.2,3.2-14.8,1.9-22.5c-1.8-10.7-9.6-17.5-20.2-17.9c-0.2,0-0.3,0-0.5,0
			c1.6-1.7,3.1-3.3,4.7-5l0.4-0.4c6.2-6.6,12.7-13.5,18.9-20.4c3-3.3,4.7-3.7,7.1-3.4c7.2,0.9,14.3-2,19.5-8
			c7.7-8.9,10.7-19.8,8.7-32.3c-0.5-3.4-1.5-6.4-2.9-9c12.4-0.9,24.7-0.5,36.4,0c14.4,0.7,26.5,1.1,38.9,0.9
			c8.8-0.2,15.7-2.6,20.7-7.2c1.4,0,2.7,0,4.1-0.1c18.8-0.4,27-10.1,30.7-18.1c2.5-5.5,3.8-11.3,4.9-16.8c0.8-4.2,1.4-8.4,1.9-12.4
			l0-0.1c0.3-2.1,0.5-4.2,0.8-6.3c0.3-2,0.7-4.1,1-6.1l0-0.1c0.7-4.2,1.5-8.5,1.8-13C806.7,213.7,800.7,205.4,790.5,202.7z"/>
		<path class="st1" d="M696.7,156.7c9.8,0.2,19.6,0.6,29.4,0.6c8,0,16-0.7,24-0.7c7.6,0,13.3,4.2,14.8,11.7c1.7,8.8,0.7,17.4-4.7,25
			c-2.7,3.7-6.5,5.6-11.1,5.6c-3.6,0-7.2-0.2-10.8-0.1c-2.6,0-4.3,1.5-4.8,4c-1.5,7.4-2.9,14.8-4.2,22.2c-0.8,4.2-1.4,8.5-2,12.8
			c-0.2,1.4-0.3,2.9-0.3,4.3c0.1,3.4,1,4.5,4.3,5.1c5.7,1.1,11.5,1,17.1-0.3c5.3-1.2,7.4-5.3,8.8-10c1.4-4.8,2.7-9.7,4.4-14.4
			c2.7-7.6,8.2-11.4,16.3-11.3c3.4,0,6.9,0.2,10.1,1c5.6,1.5,8.6,5.4,8.2,11.2c-0.5,6.2-1.9,12.4-2.8,18.6
			c-0.9,6.1-1.4,12.3-2.6,18.4c-1,5-2.2,10.1-4.2,14.7c-4.2,9.3-12.8,12.2-22,12.4c-12.8,0.3-25.7-0.2-38.5-0.9
			c-15.3-0.7-30.6-1-45.8,0.8c-4.6,0.6-9.3,0.4-14,0.2c-5.3-0.2-10.2-4.7-11.5-10.3c-1.5-6.2-1.2-12.4,1.1-18.3
			c3.2-8.6,10.2-12.8,19.4-12.2c2.4,0.2,4.9,0.2,7.3,0.2c3.8,0,5.4-1,6.3-4.6c1.7-7.4,3.3-14.9,4.5-22.4c0.9-5.2,1.1-10.5,1.5-15.8
			c0.3-4-1.1-5.5-5.1-5.5c-1.8,0-3.6,0.1-5.4,0.3c-7.3,0.7-12.5-4.2-13.8-10.6c-1.7-8.4-0.8-16.5,4.7-23.5c4-5.1,9.5-7.5,15.8-8.1
			c1.9-0.2,3.8,0,5.7,0C696.7,156.6,696.7,156.6,696.7,156.7z"/>
		<path class="st1" d="M213.4,271.8c0-8.9,2.9-15.8,9.9-20.2c2.4-1.5,5.4-2.3,8.3-3.1c3.2-0.8,5.9-2,7.5-5.2
			c7.1-13.8,14.2-27.7,21.3-41.5c0.1-0.2,0.2-0.3,0.2-0.5c0.3-1.8,0.5-3.6,0.7-5.4c-1.7-0.1-3.3-0.5-5-0.3c-8.7,1.1-14.1-2-16.1-9.8
			c-0.7-2.6-0.8-5.3-0.7-8c0.3-13,8.8-21.9,20.8-22.5c4.4-0.2,8.8-0.1,13.2,0.4c14.9,1.6,29.8,1.5,44.7,0c5.3-0.6,10.8-0.6,16.1-0.2
			c9.6,0.7,16,6.6,18.2,16.4c5.1,22.5,10.1,45.1,15.4,67.5c0.9,3.9,2.7,7.6,4.5,11.2c5,9.8,6.1,19.5-0.3,29.1
			c-3.7,5.6-9.3,8.1-15.9,8c-5.7-0.1-11.5-0.9-17.2-1c-4.9-0.1-9.9,0.1-14.8,0.5c-6,0.5-12.1,1.3-17.7-1.5c-5.2-2.6-8-7-8.1-12.7
			c-0.1-3.4,0.2-6.9,1.1-10.1c1.9-7,8-11.3,15.2-11.5c4.7-0.1,7.6-5,5.2-9c-0.5-0.8-2.3-1.2-3.5-1.1c-5.7,0.3-11.5,1.1-17.2,1.1
			c-5.3,0-10.6-0.7-15.8-1.4c-4.6-0.6-7.7,1.7-8.2,6.3c-0.2,2.5,0.8,3.4,3.1,3.7c2.2,0.3,4.6,0.4,6.6,1.2c3.8,1.7,5.3,5.2,5.8,9.1
			c0.9,7.1-0.2,13.9-4.6,19.7c-3.8,5.1-9.4,7-15.5,6.8c-6.4-0.1-12.7-1.1-19.1-1.2c-4.7-0.1-9.5,0.4-14.3,0.6
			c-3.9,0.2-7.8,0.8-11.5,0.2C218.5,286.4,212.7,280.3,213.4,271.8z M301.4,216.3c4.2,0.3,8.2,0.6,12.3,0.8c2.5,0.1,3.1-0.6,2.4-3.1
			c-1.2-4.3-2.3-8.7-3.7-13c-0.5-1.5-1.5-3.3-2.8-4c-3.5-2.1-9.6-0.4-11.6,3.1c-2.8,4.7-5.4,9.5-8.1,14.3c-1,1.9-0.5,2.7,1.6,2.6
			C294.9,216.8,298.2,216.5,301.4,216.3z"/>
		<path class="st1" d="M192.7,216.2c1.5,0.7,2.2,1.2,3,1.5c13.9,5.5,20.3,15.5,19.5,30.5c-0.9,17.4-10.1,28.6-25.9,35.1
			c-11.2,4.6-22.9,5-34.8,4.5c-16.1-0.7-32.1-2.6-48.3-1.6c-8.2,0.5-16.3,1.3-24.5,1.8c-10.6,0.6-15.7-6.3-16.2-15.7
			c-0.2-5.2,0-10.3,2.1-15.1c2.9-6.5,8.1-9.7,15-10.2c4-0.3,8.1,0,12.2,0c3.5,0,5.2-1,5.8-4.4c2.1-10.5,4.1-21,5.9-31.5
			c0.6-3.8,0.5-7.7,0.8-11.6c0.1-2.3-1-3.3-3.2-3.3c-4,0-7.9,0.1-11.9,0.1c-5.3,0-8.8-2.7-10.9-7.4c-3.5-7.7-1.3-23.6,7-29.4
			c3.3-2.3,6.9-4.1,11-4c9.4,0.3,18.9,1,28.3,1.2c9.5,0.2,19-0.1,28.6-0.3c9.7-0.2,19.4-1,29.1-0.8c9.1,0.1,17.7,2.6,24.6,8.9
			c8.3,7.7,10.3,17.3,7.9,28.1c-1.9,8.7-7.9,14-15.2,18.3c-2.2,1.3-4.7,2.3-7,3.5C194.9,214.7,194.1,215.3,192.7,216.2z
			 M153.1,231.7c0,0.1,0,0.1,0,0.2c-1.3,0-2.5,0-3.8,0c-5.4,0.1-8.5,2.7-9.7,7.9c-0.2,1-0.6,2.1-0.6,3.2c-0.4,8,0.2,10.6,9.2,10.7
			c5.2,0.1,10.5,0,15.2-2.7c4.1-2.3,6.4-7.2,5.5-12c-0.9-4.4-4.3-5.9-8.2-6.6C158.1,232,155.6,231.9,153.1,231.7z M157.6,189
			c-0.1,0.2-0.1,0.5-0.2,0.7c-4.1-0.5-8.2,0.3-9.6,4.3c-1.5,4.1-1.9,8.7-2.3,13.1c-0.2,2.3,1.4,3.9,4,4.2c5,0.8,9.9,0.4,14.6-1.4
			c7.6-2.9,9.7-13.5,3.3-17.8C164.6,190.2,160.8,190,157.6,189z"/>
		<path class="st1" d="M618.6,288.1c-14.4-0.7-28.7-1.7-43.1-1.9c-12-0.2-24.1,0.7-36.1,1.1c-5,0.2-10.1,0.5-15.1,0.2
			c-6.7-0.4-11.1-4.2-12.8-10.6c-2-7.2-1.3-14.4,2.1-21c3.3-6.3,9-9.1,16-9.3c3-0.1,5.9,0.2,8.9,0.2c5,0,6.7-1.2,7.9-6
			c1.4-5.4,2.8-10.8,3.6-16.3c1.1-8.1,1.8-16.3,2.4-24.4c0.3-3.2-0.7-4-3.9-4c-3.2,0-6.5,0.1-9.7,0.1c-5.9-0.1-10.3-2.7-12.2-8.4
			c-3-8.6-2.3-17.1,2.9-24.8c3.9-5.8,9.9-8,16.6-7.9c7.3,0.2,14.5,1.2,21.8,1.4c10.2,0.3,20.3,0.4,30.5,0.3
			c8.9-0.1,17.8-0.7,26.7-1.1c7.3-0.3,14.6-0.6,21.8-0.6c2.6,0,5.2,0.4,7.7,1c5.3,1.4,8.1,5.7,7.3,11.3c-1.1,7.5-2.5,14.9-3.6,22.3
			c-0.6,3.6-0.9,7.3-1.3,11c-1.1,9.1-4.5,12.9-13.5,14.4c-4.6,0.8-9.1,0.6-13.5-1.1c-3.9-1.5-5.7-4.7-6.6-8.6c0-0.2,0-0.4-0.1-0.5
			c-1.1-7.5-3.2-9.5-10.7-9.6c-5.7-0.1-11.5-0.1-17.2,0.7c-4.8,0.7-7.8,7.7-5.4,12c0.5,0.9,2,1.7,3,1.7c3.1,0.1,6.3-0.2,9.4-0.4
			c1.3-0.1,2.5-0.4,3.7-0.5c6-0.4,8.9,1.9,8.5,7.8c-0.3,4.3-1.5,8.7-3.1,12.7c-1.7,4.3-5.2,5.5-9.8,4.6c-3.6-0.7-7.2-1.5-10.9-1.8
			c-4.1-0.3-6.1,1.6-6.9,5.6c-0.3,1.3-0.4,2.7-0.6,4c-0.2,2.9,0.9,4.7,3.7,5c7.1,0.7,14.3,1.1,21.4-0.5c3.1-0.7,5.4-2.7,7.2-5.3
			c2.1-2.9,4.1-5.9,6.6-8.5c1.6-1.6,3.8-2.8,5.9-3.5c5.4-1.6,10.9-1.6,16.2,0c5,1.5,7.5,5,6.7,10.2c-1.2,7.6-2.8,15.2-4.1,22.8
			c-0.6,3.6-1,7.3-1.6,10.9c-1.6,9-7,13.6-17,14.2c-3.2,0.2-6.5,0-9.7,0C618.6,287.7,618.6,287.9,618.6,288.1z"/>
		<path class="st1" d="M493.1,209.7c-3.7-0.7-7.5-1-11.1-2.1c-5.9-1.7-7.9-4.8-8.1-10.9c-0.1-4.2-0.4-4.7-4.6-5.5
			c-12.3-2.4-23.9-1.3-33.8,7.1c-6.2,5.2-9.5,12.1-10.4,20.1c-1,8.5,0.1,16.7,5.3,23.9c3.6,5.1,8.7,8.1,14.7,9.2
			c6.1,1.1,12.2,0.8,18-1.5c1.6-0.6,3.2-1.8,4.2-3.1c1.4-1.7,0.5-3-1.7-3.2c-7.3-0.5-10.3-3.6-10.6-11c-0.2-6,0.9-11.5,6-15.4
			c3.3-2.5,7.1-3.4,11.2-3.3c5.8,0.1,11.7,0.6,17.5,0.6c6.4,0,12.8-0.3,19.1-0.7c10.4-0.6,14.2,6.3,13.1,15.2
			c-1,8.5-4.9,12.7-13.3,14.4c-2.8,0.6-3.9,2.1-4.2,4.7c-0.8,7.4-1.6,14.8-2.5,22.2c-0.3,2.1-1,4.2-1.7,6.2c-2,5.7-6,9.4-11.9,10.1
			c-4.7,0.6-9.6,0.3-14.4-0.1c-3.5-0.3-5.9-2.8-7.2-6.2c-1.1-2.7-1.9-3-4.4-1.4c-16.4,10.3-34,11.3-51.7,4.7
			c-15.4-5.8-25.6-17.5-30.3-33.3c-5-16.8-4.4-33.7,2.1-50c8.7-22,24.6-36.3,47.5-42.6c13.2-3.6,26.5-3.7,39.7-0.3
			c4.5,1.2,8.7,3.4,12.9,5.4c4,1.9,4.8,1.9,6.8-1.8c2-3.5,4.9-5.6,8.8-6.4c4.6-0.9,9.2-0.6,13.6,0.8c3.8,1.2,6.5,4.8,6.2,8.8
			c-0.3,3.9-1.3,7.8-1.9,11.7c-0.9,6.4-1.7,12.8-2.7,19.2c-1.2,7.8-7.5,13.2-15.5,13.7c-1.6,0.1-3.2,0-4.9,0
			C493.2,209.3,493.2,209.5,493.1,209.7z"/>
		<g>
			<path class="st1" d="M330.5,361.2c1.3,0.7,2.1,1.2,2.9,1.4c13.8,4.8,20.5,16.7,19.5,31.3c-1.3,20.1-15.4,32.5-33.8,36.8
				c-12.1,2.8-24.3,2.2-36.5,1.3c-15.3-1.1-30.5-2.1-45.8-0.4c-6.1,0.7-12.2,1.1-18.3,1.1c-9,0.1-14.8-5.8-15.1-14.8
				c-0.2-5.5-0.2-11,2.2-16.1c2.9-6.2,7.9-9.4,14.6-10c4.1-0.3,8.3,0,12.4-0.1c3.5,0,5.2-1,5.9-4.3c2.1-10.4,4.1-20.8,5.8-31.2
				c0.6-3.7,0.7-7.5,0.8-11.3c0.1-3.3-0.5-3.9-3.9-3.9c-3.8,0-7.6,0.1-11.3,0.1c-5.1,0-8.4-2.7-10.6-7.1c-3.7-7.6-1.6-24,7.3-30
				c3.2-2.1,6.6-3.8,10.5-3.7c10,0.4,19.9,1.2,29.9,1.4c9.1,0.2,18.2-0.3,27.2-0.6c9.7-0.3,19.4-0.9,29.1-0.8
				c9.1,0.1,17.7,2.6,24.5,9c8.2,7.7,10.1,17.3,7.8,28c-1.9,8.7-7.9,14.1-15.2,18.3c-2.2,1.3-4.7,2.3-7,3.5
				C332.5,359.7,331.8,360.4,330.5,361.2z M288.5,398.8c0.1,0.2,0.1,0.4,0.2,0.6c4.2-1.2,8.6-2,12.5-3.7c4.1-1.8,6.2-7.1,5.3-11.8
				c-0.8-4.3-4.2-6.1-8-6.5c-4.4-0.5-8.8-0.7-13.2-0.4c-4.3,0.3-7.1,2.9-7.9,7.2c-0.5,2.6-0.8,5.3-0.8,8c-0.1,3.8,1.7,5.6,5.4,6.1
				C284.2,398.6,286.3,398.7,288.5,398.8z M295.3,334c-0.1,0.2-0.1,0.5-0.2,0.7c-4-0.4-7.6,0.3-9.6,4c-2.3,4.3-2.9,9-2.3,13.9
				c0.3,2.1,1.5,3.3,3.7,3.7c5.1,0.9,10.1,0.5,14.9-1.3c7.7-2.9,9.7-13.5,3.3-17.8C302.3,335.2,298.5,335,295.3,334z"/>
			<path class="st1" d="M356.3,371.6c0.4-16.4,5.1-31.3,15.1-44.2c7.8-10,17.9-17,29.6-22c9.4-4,19.3-5.4,29.4-6
				c13.8-0.8,27.2,1,39.6,7.3c19.7,9.9,30.6,26.1,32.6,48.1c1.1,11.5-0.3,22.6-4.6,33.3c-6,14.9-15.9,26.5-29.9,34.3
				c-19.4,10.8-40.2,13.3-61.9,9.7c-11.2-1.9-21.4-6-30.1-13.5c-10.2-8.8-16.2-20.1-18.3-33.3C357.1,380.8,356.8,376.2,356.3,371.6z
				 M431.8,338.8c-9.9-0.2-16.7,4-21.4,11.3c-6.2,9.7-7,20.2-3.2,31c2.5,6.9,7.5,11.5,14.8,12.8c3.6,0.6,7.5,0.6,11.2,0
				c8.3-1.2,14.2-6.1,17.9-13.6c3.5-7,4-14.5,2.8-22.1C452.1,345.4,444.1,338.6,431.8,338.8z"/>
			<path class="st1" d="M613.1,302c5.8,0,11.5,0.1,17.3,0c4.2-0.1,8.4-0.5,12.7-0.5c8.8-0.1,13.8,3.8,15.2,12.4
				c1.4,9-0.3,17.4-6.5,24.5c-2.9,3.3-6.8,5.3-11,4.7c-6.7-0.9-11.3,1.8-15.6,6.5c-9.5,10.5-19.4,20.8-29.1,31.2
				c-2,2.2-3.7,4.6-3.7,7.8c0,2,0.9,3.1,2.9,3.1c2.6,0.1,5.2,0,7.8,0c1.8,0,3.6-0.2,5.4-0.1c6.1,0.2,9.9,3.9,11,9.9
				c1,6,0.6,11.9-1.5,17.5c-3.5,9.8-12.4,14.6-23.7,13.8c-11.6-0.9-23.3-1.6-35-1.7c-7.2-0.1-14.5,1.1-21.8,1.6
				c-2.5,0.2-5.1,0.1-7.5-0.2c-6.3-0.9-10.3-5.4-11.3-11.7c-0.9-5.2-0.7-10.3,0.8-15.2c3.4-10.5,10.2-14.8,21.1-13.9
				c2.2,0.2,4.5,0.3,6.7,0.2c5.3-0.2,7.6-4.5,4.8-9c-2.4-3.9-5.1-7.6-7.7-11.4c-5.5-8-11.1-15.9-16.5-24c-2.3-3.5-5-5.4-9.4-4.3
				c-1.9,0.5-4.1,0.4-6.2,0.1c-4.8-0.7-7.1-4.4-7.9-8.5c-2.1-10.3-0.9-20.1,6.9-28c2.8-2.9,6.4-4.6,10.3-4.9c4.6-0.4,9.3,0.1,14,0.1
				c5.7,0,11.3,0,17-0.1c5.4,0,10.8-0.6,16.2-0.1c8.8,0.8,13.2,7.6,12.2,17.4c-0.9,8.4-4,15.4-11.8,19.7c-0.6,0.3-1.1,2.1-0.8,2.8
				c2.9,5.5,6,10.9,9,16.3c0.7,1.2,1.6,1.4,2.6,0.3c5-5.7,9.9-11.4,14.8-17.2c0.3-0.4,0.1-1.9-0.3-2.1c-6.4-3.5-7.1-9.3-6.3-15.6
				c0.7-6.4,2.4-12.3,7.5-16.8c3.5-3.1,7.6-4.4,12-4.8c1.9-0.2,3.8,0,5.7,0C613.1,301.7,613.1,301.9,613.1,302z"/>
		</g>
	</g>
</g>
<g>
	<g>
		<path class="st1" d="M671.8,1041.7c0,0,0-0.1,0.1-0.1c0.2-0.1,0.3-0.1,0.5-0.2c2.1-0.8,3.8-2.1,4.5-4.3c1.4-4.7-0.3-10.8-7.9-11.4
			c-2-0.2-4.1-0.2-6.2-0.2c-2.8,0-5.6,0.1-8.4,0.1c-2.2,0-3.7,1.6-3.6,3.7c0.1,1.3,0.5,2.7,0.8,4c0.2,0.9,0.9,1.9,0.9,2.8
			c-0.1,4.6,0.7,9.3-0.8,13.9c-0.2,0.7-0.2,1.5-0.2,2.3c0,1.3,0.7,2.2,1.9,2.3c1.2,0.1,2.5,0.3,3.8,0.3c0.5,0,1,0,1.5-0.1
			c3.3-0.4,4-1.7,3-4.9c-0.2-0.8-0.4-1.6-0.5-2.4c-0.1-0.9,0.3-1.4,1.2-1.6c0.3-0.1,0.7-0.1,1-0.1c1.7,0,2.8,0.8,3.5,2.6
			c0.5,1.3,0.9,2.7,1.4,4c0.5,1.3,1.4,2.2,2.8,2.3c0.9,0.1,1.7,0.1,2.6,0.1c0.6,0,1.2,0,1.8-0.1c1.9-0.2,3.1-1.3,2.8-2.6
			C677.4,1048.1,675.8,1044.2,671.8,1041.7z M668,1036.3c-0.1,1.4-0.8,2.3-2.1,2.8c-0.2,0.1-0.5,0.2-0.7,0.2
			c-0.8,0.1-1.5,0.1-2.1,0.1c-1.8,0-2-0.6-2-3.9c0-2.4,0.2-3.1,1.8-3.1c0.4,0,0.9,0,1.6,0.1C667.1,1032.8,668.2,1033.9,668,1036.3z"
			/>
		<path class="st1" d="M664.5,1012.9c-0.1,0-0.1,0-0.2,0c-15,0-27.4,12.5-27.5,27.5c-0.1,15.1,12.4,27.6,27.6,27.6
			c0.1,0,0.1,0,0.2,0c15,0,27.4-12.4,27.4-27.5C692.1,1025.4,679.8,1013,664.5,1012.9z M664.5,1062.8
			C664.5,1062.8,664.5,1062.8,664.5,1062.8c-12.3,0-22.4-10.2-22.4-22.3c0-12.1,10.2-22.3,22.2-22.3c0.1,0,0.2,0,0.2,0
			c12.4,0.1,22.3,10.1,22.2,22.4C686.8,1052.8,676.7,1062.8,664.5,1062.8z"/>
	</g>
	<g>
		<path class="st1" d="M790.5,821.4L790.5,821.4c-4.3-1.1-8.6-1.3-12.5-1.3h-0.2c-11.6,0-20.6,6.1-24.8,16.7
			c-5.2,0-9.7,1.5-13.3,4.2c0.8-4.4,1.7-9,2.6-13.8c0.8,0,1.6,0,2.4,0l0.6,0c1.3,0,2.5,0,3.8,0.1h0.2c7.7,0,14.4-3.4,18.9-9.7
			c6.6-9.3,8.7-20.2,6.3-32.5c-2.3-11.8-11.8-19.5-24.2-19.5h-0.1c-4.1,0-8.1,0.2-12,0.4l-0.2,0c-3.9,0.2-7.9,0.3-11.8,0.4h-0.2
			c-6.5,0-13.1-0.2-19.5-0.4v-0.4h-9.7c-0.5,0-1,0-1.5,0l-0.1,0c-1.5,0-3.1-0.1-5,0.1c-8.5,0.7-15.5,4-20.8,9.6
			c-2.4-4.7-6.8-8.2-12.5-9.7c-3.4-0.9-6.9-1.3-10.2-1.3c-6.6,0.1-13.2,0.3-19.5,0.5l-2.6,0.1c-3.2,0.1-6.4,0.3-9.6,0.4l-0.1,0
			c-5.5,0.3-11.2,0.5-16.7,0.6c-9.9,0.1-20,0-30.1-0.3c-3.2-0.1-6.7-0.4-10-0.7c-3.6-0.3-7.7-0.6-11.8-0.7
			c-8.8-0.2-16.1,2.5-21.6,8.1c-2.3-3.3-5.7-5.9-9.8-7.2c-6-1.9-12.2-2.3-18.4-1.1c-5.2,1-9.6,3.6-12.9,7.5
			c-3.5-1.7-7.2-3.4-11.4-4.5c-14.8-3.8-29.9-3.7-44.7,0.4c-14.9,4.1-27.3,11.3-37.1,21.5c-9.5,4.5-17.5,10.6-24.1,18.4
			c-1.4-6.2-2.8-12.5-4.2-18.7c-3.2-14-13.3-22.9-26.9-23.9c-6.3-0.5-12.2-0.4-17.8,0.2c-14.4,1.5-28.8,1.5-42.7,0
			c-4.9-0.5-9.8-0.7-14.6-0.4c-11.6,0.6-21.3,6.8-26.3,16.8c-3.7,0.4-7.1,1.5-10.1,3.2c-1.8-3.1-4.2-5.9-7-8.5
			c-8.1-7.5-18.5-11.3-31-11.5c-6.4-0.1-12.7,0.2-18.8,0.4c-3.5,0.1-7.1,0.3-10.7,0.4l-2.3,0.1c-8.5,0.2-17.3,0.4-25.9,0.3
			c-5.1-0.1-10.3-0.3-15.4-0.6c-4.2-0.2-8.5-0.4-12.8-0.6c-7.4-0.3-13.1,3.1-16.8,5.7c-3.6,2.5-6.7,6.3-8.9,10.9
			c-5.6,0.1-10.1,2.8-13.1,4.9c-10.2,7.1-13.3,25.5-8.7,35.5c3,6.6,8.5,10.3,15.5,10.3c2.8,0,5.7,0,8.5,0l1.5,0c0,0.6,0,1.2-0.1,1.8
			c-0.1,2.6-0.2,5-0.5,7.3c-0.8,5-1.8,10.4-3,16.8c-6.8,2.4-12,7.3-15.1,14.2c-0.1,0.2-0.2,0.5-0.3,0.7c-0.3,0-0.6,0-0.9,0.1
			c-9,0.6-15.7,5.2-19.2,13.1c-2.7,6-2.8,12.1-2.5,17.3c0.3,6.7,2.6,12.2,6.7,15.8c3.8,3.4,8.9,5,14.8,4.6c4.2-0.3,8.5-0.6,12.6-0.9
			c3.9-0.3,7.9-0.6,11.9-0.9c11.1-0.7,22.6,0.1,33.7,0.8c4.6,0.3,9.4,0.6,14.1,0.8c11.2,0.5,24.3,0.3,36.9-4.8
			c2-0.8,3.9-1.7,5.8-2.8c4.9-0.5,9.4-1.3,13.7-2.5c2.8,5.2,8,8.9,14.2,9.8c3.2,0.5,6.4,0.3,9.4,0c1-0.1,2.1-0.2,3.1-0.2
			c0.2,0,0.4,0,0.6,0c-0.6,1-1.2,2.1-1.7,3.2c-5.3,0.1-9.7,2.6-12.6,4.5c-11.6,7.8-13.4,27.1-9,36.3c3.1,6.5,8.3,9.9,15,9.9
			c1.7,0,3.4,0,5.2,0c1.7,0,3.4,0,5.1,0l0,0.3c-0.1,3.2-0.2,6.2-0.7,9.1c-0.9,5-1.8,10.3-3,16.4c-6.7,2.4-11.9,7.2-15,14
			c-0.1,0.3-0.3,0.6-0.4,1c-0.4,0-0.8,0-1.2,0.1c-8.7,0.7-15.2,5.2-18.7,12.9c-2.8,6.2-2.9,12.5-2.6,18.4
			c0.5,11.8,8.4,19.6,19.9,19.6c0.1,0,0.2,0,0.3,0c6.1-0.1,12.5-0.5,18.8-1.2c14.7-1.6,29.8-0.6,44.4,0.4l0.5,0
			c13.4,0.9,25.6,1.5,38-1.5c5.3-1.2,10.3-3.1,14.8-5.6c3.9-0.4,7.5-1,11-1.8c8.6-2,16-5.4,22.3-10.1c1.4,1.5,2.9,3,4.5,4.3
			c8.8,7.6,19.7,12.5,32.6,14.7c6.4,1.1,12.7,1.6,18.8,1.6c13.9,0,27.1-2.8,39.3-8.3c12-1.7,23.5-5.5,34.1-11.5
			c6.1-3.4,11.6-7.5,16.4-12.2c-1.1,4.6-1.2,9.6-0.3,14.9c1.5,8.7,7.2,14.6,15.5,15.8c2.6,0.4,5.4,0.5,8.6,0.3
			c2.7-0.2,5.4-0.4,8-0.7c4.6-0.5,9-0.9,13.4-0.8c12.2,0.1,24.4,0.9,34.7,1.7c9.2,0.7,17.2-1.9,22.7-7.4l1.6,0.1
			c1,0.1,2.1,0.1,3.2,0.1c14.5,0,25.8-7.6,30.4-20.3c2.6-7.2,3.2-14.8,1.9-22.5c-1.8-10.7-9.6-17.5-20.2-17.9c-0.2,0-0.3,0-0.5,0
			c1.6-1.7,3.1-3.3,4.7-5l0.4-0.4c6.2-6.6,12.7-13.5,18.9-20.4c3-3.3,4.7-3.7,7.1-3.4c7.2,0.9,14.3-2,19.5-8
			c7.7-8.9,10.7-19.8,8.7-32.3c-0.5-3.4-1.5-6.4-2.9-9c12.4-0.9,24.7-0.5,36.4,0c14.4,0.7,26.5,1.1,38.9,0.9
			c8.8-0.2,15.7-2.6,20.7-7.2c1.4,0,2.7,0,4.1-0.1c18.8-0.4,27-10.1,30.7-18.1c2.5-5.5,3.8-11.3,4.9-16.8c0.8-4.2,1.4-8.4,1.9-12.4
			l0-0.1c0.3-2.1,0.5-4.2,0.8-6.3c0.3-2,0.7-4.1,1-6.1l0-0.1c0.7-4.2,1.5-8.5,1.8-13C806.7,832.4,800.7,824.1,790.5,821.4z"/>
		<path class="st0" d="M696.7,775.4c9.8,0.2,19.6,0.6,29.4,0.6c8,0,16-0.7,24-0.7c7.6,0,13.3,4.2,14.8,11.7c1.7,8.8,0.7,17.4-4.7,25
			c-2.7,3.7-6.5,5.6-11.1,5.6c-3.6,0-7.2-0.2-10.8-0.1c-2.6,0-4.3,1.5-4.8,4c-1.5,7.4-2.9,14.8-4.2,22.2c-0.8,4.2-1.4,8.5-2,12.8
			c-0.2,1.4-0.3,2.9-0.3,4.3c0.1,3.4,1,4.5,4.3,5.1c5.7,1.1,11.5,1,17.1-0.3c5.3-1.2,7.4-5.3,8.8-10c1.4-4.8,2.7-9.7,4.4-14.4
			c2.7-7.6,8.2-11.4,16.3-11.3c3.4,0,6.9,0.2,10.1,1c5.6,1.5,8.6,5.4,8.2,11.2c-0.5,6.2-1.9,12.4-2.8,18.6
			c-0.9,6.1-1.4,12.3-2.6,18.4c-1,5-2.2,10.1-4.2,14.7c-4.2,9.3-12.8,12.2-22,12.4c-12.8,0.3-25.7-0.2-38.5-0.9
			c-15.3-0.7-30.6-1-45.8,0.8c-4.6,0.6-9.3,0.4-14,0.2c-5.3-0.2-10.2-4.7-11.5-10.3c-1.5-6.2-1.2-12.4,1.1-18.3
			c3.2-8.6,10.2-12.8,19.4-12.2c2.4,0.2,4.9,0.2,7.3,0.2c3.8,0,5.4-1,6.3-4.6c1.7-7.4,3.3-14.9,4.5-22.4c0.9-5.2,1.1-10.5,1.5-15.8
			c0.3-4-1.1-5.5-5.1-5.5c-1.8,0-3.6,0.1-5.4,0.3c-7.3,0.7-12.5-4.2-13.8-10.6c-1.7-8.4-0.8-16.5,4.7-23.5c4-5.1,9.5-7.5,15.8-8.1
			c1.9-0.2,3.8,0,5.7,0C696.7,775.3,696.7,775.3,696.7,775.4z"/>
		<path class="st0" d="M213.4,890.4c0-8.9,2.9-15.8,9.9-20.2c2.4-1.5,5.4-2.3,8.3-3.1c3.2-0.8,5.9-2,7.5-5.2
			c7.1-13.8,14.2-27.7,21.3-41.5c0.1-0.2,0.2-0.3,0.2-0.5c0.3-1.8,0.5-3.6,0.7-5.4c-1.7-0.1-3.3-0.5-5-0.3c-8.7,1.1-14.1-2-16.1-9.8
			c-0.7-2.6-0.8-5.3-0.7-8c0.3-13,8.8-21.9,20.8-22.5c4.4-0.2,8.8-0.1,13.2,0.4c14.9,1.6,29.8,1.5,44.7,0c5.3-0.6,10.8-0.6,16.1-0.2
			c9.6,0.7,16,6.6,18.2,16.4c5.1,22.5,10.1,45.1,15.4,67.5c0.9,3.9,2.7,7.6,4.5,11.2c5,9.8,6.1,19.5-0.3,29.1
			c-3.7,5.6-9.3,8.1-15.9,8c-5.7-0.1-11.5-0.9-17.2-1c-4.9-0.1-9.9,0.1-14.8,0.5c-6,0.5-12.1,1.3-17.7-1.5c-5.2-2.6-8-7-8.1-12.7
			c-0.1-3.4,0.2-6.9,1.1-10.1c1.9-7,8-11.3,15.2-11.5c4.7-0.1,7.6-5,5.2-9c-0.5-0.8-2.3-1.2-3.5-1.1c-5.7,0.3-11.5,1.1-17.2,1.1
			c-5.3,0-10.6-0.7-15.8-1.4c-4.6-0.6-7.7,1.7-8.2,6.3c-0.2,2.5,0.8,3.4,3.1,3.7c2.2,0.3,4.6,0.4,6.6,1.2c3.8,1.7,5.3,5.2,5.8,9.1
			c0.9,7.1-0.2,13.9-4.6,19.7c-3.8,5.1-9.4,7-15.5,6.8c-6.4-0.1-12.7-1.1-19.1-1.2c-4.7-0.1-9.5,0.4-14.3,0.6
			c-3.9,0.2-7.8,0.8-11.5,0.2C218.5,905.1,212.7,898.9,213.4,890.4z M301.4,835c4.2,0.3,8.2,0.6,12.3,0.8c2.5,0.1,3.1-0.6,2.4-3.1
			c-1.2-4.3-2.3-8.7-3.7-13c-0.5-1.5-1.5-3.3-2.8-4c-3.5-2.1-9.6-0.4-11.6,3.1c-2.8,4.7-5.4,9.5-8.1,14.3c-1,1.9-0.5,2.7,1.6,2.6
			C294.9,835.5,298.2,835.2,301.4,835z"/>
		<path class="st0" d="M192.7,834.9c1.5,0.7,2.2,1.2,3,1.5c13.9,5.5,20.3,15.5,19.5,30.5c-0.9,17.4-10.1,28.6-25.9,35.1
			c-11.2,4.6-22.9,5-34.8,4.5c-16.1-0.7-32.1-2.6-48.3-1.6c-8.2,0.5-16.3,1.3-24.5,1.8c-10.6,0.6-15.7-6.3-16.2-15.7
			c-0.2-5.2,0-10.3,2.1-15.1c2.9-6.5,8.1-9.7,15-10.2c4-0.3,8.1,0,12.2,0c3.5,0,5.2-1,5.8-4.4c2.1-10.5,4.1-21,5.9-31.5
			c0.6-3.8,0.5-7.7,0.8-11.6c0.1-2.3-1-3.3-3.2-3.3c-4,0-7.9,0.1-11.9,0.1c-5.3,0-8.8-2.7-10.9-7.4c-3.5-7.7-1.3-23.6,7-29.4
			c3.3-2.3,6.9-4.1,11-4c9.4,0.3,18.9,1,28.3,1.2c9.5,0.2,19-0.1,28.6-0.3c9.7-0.2,19.4-1,29.1-0.8c9.1,0.1,17.7,2.6,24.6,8.9
			c8.3,7.7,10.3,17.3,7.9,28.1c-1.9,8.7-7.9,14-15.2,18.3c-2.2,1.3-4.7,2.3-7,3.5C194.9,833.4,194.1,834,192.7,834.9z M153.1,850.3
			c0,0.1,0,0.1,0,0.2c-1.3,0-2.5,0-3.8,0c-5.4,0.1-8.5,2.7-9.7,7.9c-0.2,1-0.6,2.1-0.6,3.2c-0.4,8,0.2,10.6,9.2,10.7
			c5.2,0.1,10.5,0,15.2-2.7c4.1-2.3,6.4-7.2,5.5-12c-0.9-4.4-4.3-5.9-8.2-6.6C158.1,850.6,155.6,850.6,153.1,850.3z M157.6,807.7
			c-0.1,0.2-0.1,0.5-0.2,0.7c-4.1-0.5-8.2,0.3-9.6,4.3c-1.5,4.1-1.9,8.7-2.3,13.1c-0.2,2.3,1.4,3.9,4,4.2c5,0.8,9.9,0.4,14.6-1.4
			c7.6-2.9,9.7-13.5,3.3-17.8C164.6,808.9,160.8,808.6,157.6,807.7z"/>
		<path class="st0" d="M618.6,906.8c-14.4-0.7-28.7-1.7-43.1-1.9c-12-0.2-24.1,0.7-36.1,1.1c-5,0.2-10.1,0.5-15.1,0.2
			c-6.7-0.4-11.1-4.2-12.8-10.6c-2-7.2-1.3-14.4,2.1-21c3.3-6.3,9-9.1,16-9.3c3-0.1,5.9,0.2,8.9,0.2c5,0,6.7-1.2,7.9-6
			c1.4-5.4,2.8-10.8,3.6-16.3c1.1-8.1,1.8-16.3,2.4-24.4c0.3-3.2-0.7-4-3.9-4c-3.2,0-6.5,0.1-9.7,0.1c-5.9-0.1-10.3-2.7-12.2-8.4
			c-3-8.6-2.3-17.1,2.9-24.8c3.9-5.8,9.9-8,16.6-7.9c7.3,0.2,14.5,1.2,21.8,1.4c10.2,0.3,20.3,0.4,30.5,0.3
			c8.9-0.1,17.8-0.7,26.7-1.1c7.3-0.3,14.6-0.6,21.8-0.6c2.6,0,5.2,0.4,7.7,1c5.3,1.4,8.1,5.7,7.3,11.3c-1.1,7.5-2.5,14.9-3.6,22.3
			c-0.6,3.6-0.9,7.3-1.3,11c-1.1,9.1-4.5,12.9-13.5,14.4c-4.6,0.8-9.1,0.6-13.5-1.1c-3.9-1.5-5.7-4.7-6.6-8.6c0-0.2,0-0.4-0.1-0.5
			c-1.1-7.5-3.2-9.5-10.7-9.6c-5.7-0.1-11.5-0.1-17.2,0.7c-4.8,0.7-7.8,7.7-5.4,12c0.5,0.9,2,1.7,3,1.7c3.1,0.1,6.3-0.2,9.4-0.4
			c1.3-0.1,2.5-0.4,3.7-0.5c6-0.4,8.9,1.9,8.5,7.8c-0.3,4.3-1.5,8.7-3.1,12.7c-1.7,4.3-5.2,5.5-9.8,4.6c-3.6-0.7-7.2-1.5-10.9-1.8
			c-4.1-0.3-6.1,1.6-6.9,5.6c-0.3,1.3-0.4,2.7-0.6,4c-0.2,2.9,0.9,4.7,3.7,5c7.1,0.7,14.3,1.1,21.4-0.5c3.1-0.7,5.4-2.7,7.2-5.3
			c2.1-2.9,4.1-5.9,6.6-8.5c1.6-1.6,3.8-2.8,5.9-3.5c5.4-1.6,10.9-1.6,16.2,0c5,1.5,7.5,5,6.7,10.2c-1.2,7.6-2.8,15.2-4.1,22.8
			c-0.6,3.6-1,7.3-1.6,10.9c-1.6,9-7,13.6-17,14.2c-3.2,0.2-6.5,0-9.7,0C618.6,906.4,618.6,906.6,618.6,906.8z"/>
		<path class="st0" d="M493.1,828.3c-3.7-0.7-7.5-1-11.1-2.1c-5.9-1.7-7.9-4.8-8.1-10.9c-0.1-4.2-0.4-4.7-4.6-5.5
			c-12.3-2.4-23.9-1.3-33.8,7.1c-6.2,5.2-9.5,12.1-10.4,20.1c-1,8.5,0.1,16.7,5.3,23.9c3.6,5.1,8.7,8.1,14.7,9.2
			c6.1,1.1,12.2,0.8,18-1.5c1.6-0.6,3.2-1.8,4.2-3.1c1.4-1.7,0.5-3-1.7-3.2c-7.3-0.5-10.3-3.6-10.6-11c-0.2-6,0.9-11.5,6-15.4
			c3.3-2.5,7.1-3.4,11.2-3.3c5.8,0.1,11.7,0.6,17.5,0.6c6.4,0,12.8-0.3,19.1-0.7c10.4-0.6,14.2,6.3,13.1,15.2
			c-1,8.5-4.9,12.7-13.3,14.4c-2.8,0.6-3.9,2.1-4.2,4.7c-0.8,7.4-1.6,14.8-2.5,22.2c-0.3,2.1-1,4.2-1.7,6.2c-2,5.7-6,9.4-11.9,10.1
			c-4.7,0.6-9.6,0.3-14.4-0.1c-3.5-0.3-5.9-2.8-7.2-6.2c-1.1-2.7-1.9-3-4.4-1.4c-16.4,10.3-34,11.3-51.7,4.7
			c-15.4-5.8-25.6-17.5-30.3-33.3c-5-16.8-4.4-33.7,2.1-50c8.7-22,24.6-36.3,47.5-42.6c13.2-3.6,26.5-3.7,39.7-0.3
			c4.5,1.2,8.7,3.4,12.9,5.4c4,1.9,4.8,1.9,6.8-1.8c2-3.5,4.9-5.6,8.8-6.4c4.6-0.9,9.2-0.6,13.6,0.8c3.8,1.2,6.5,4.8,6.2,8.8
			c-0.3,3.9-1.3,7.8-1.9,11.7c-0.9,6.4-1.7,12.8-2.7,19.2c-1.2,7.8-7.5,13.2-15.5,13.7c-1.6,0.1-3.2,0-4.9,0
			C493.2,827.9,493.2,828.1,493.1,828.3z"/>
		<g>
			<path class="st0" d="M330.5,979.9c1.3,0.7,2.1,1.2,2.9,1.4c13.8,4.8,20.5,16.7,19.5,31.3c-1.3,20.1-15.4,32.5-33.8,36.8
				c-12.1,2.8-24.3,2.2-36.5,1.3c-15.3-1.1-30.5-2.1-45.8-0.4c-6.1,0.7-12.2,1.1-18.3,1.1c-9,0.1-14.8-5.8-15.1-14.8
				c-0.2-5.5-0.2-11,2.2-16.1c2.9-6.2,7.9-9.4,14.6-10c4.1-0.3,8.3,0,12.4-0.1c3.5,0,5.2-1,5.9-4.3c2.1-10.4,4.1-20.8,5.8-31.2
				c0.6-3.7,0.7-7.5,0.8-11.3c0.1-3.3-0.5-3.9-3.9-3.9c-3.8,0-7.6,0.1-11.3,0.1c-5.1,0-8.4-2.7-10.6-7.1c-3.7-7.6-1.6-24,7.3-30
				c3.2-2.1,6.6-3.8,10.5-3.7c10,0.4,19.9,1.2,29.9,1.4c9.1,0.2,18.2-0.3,27.2-0.6c9.7-0.3,19.4-0.9,29.1-0.8
				c9.1,0.1,17.7,2.6,24.5,9c8.2,7.7,10.1,17.3,7.8,28c-1.9,8.7-7.9,14.1-15.2,18.3c-2.2,1.3-4.7,2.3-7,3.5
				C332.5,978.4,331.8,979,330.5,979.9z M288.5,1017.5c0.1,0.2,0.1,0.4,0.2,0.6c4.2-1.2,8.6-2,12.5-3.7c4.1-1.8,6.2-7.1,5.3-11.8
				c-0.8-4.3-4.2-6.1-8-6.5c-4.4-0.5-8.8-0.7-13.2-0.4c-4.3,0.3-7.1,2.9-7.9,7.2c-0.5,2.6-0.8,5.3-0.8,8c-0.1,3.8,1.7,5.6,5.4,6.1
				C284.2,1017.3,286.3,1017.4,288.5,1017.5z M295.3,952.6c-0.1,0.2-0.1,0.5-0.2,0.7c-4-0.4-7.6,0.3-9.6,4c-2.3,4.3-2.9,9-2.3,13.9
				c0.3,2.1,1.5,3.3,3.7,3.7c5.1,0.9,10.1,0.5,14.9-1.3c7.7-2.9,9.7-13.5,3.3-17.8C302.3,953.9,298.5,953.6,295.3,952.6z"/>
			<path class="st0" d="M356.3,990.3c0.4-16.4,5.1-31.3,15.1-44.2c7.8-10,17.9-17,29.6-22c9.4-4,19.3-5.4,29.4-6
				c13.8-0.8,27.2,1,39.6,7.3c19.7,9.9,30.6,26.1,32.6,48.1c1.1,11.5-0.3,22.6-4.6,33.3c-6,14.9-15.9,26.5-29.9,34.3
				c-19.4,10.8-40.2,13.3-61.9,9.7c-11.2-1.9-21.4-6-30.1-13.5c-10.2-8.8-16.2-20.1-18.3-33.3C357.1,999.5,356.8,994.9,356.3,990.3z
				 M431.8,957.5c-9.9-0.2-16.7,4-21.4,11.3c-6.2,9.7-7,20.2-3.2,31c2.5,6.9,7.5,11.5,14.8,12.8c3.6,0.6,7.5,0.6,11.2,0
				c8.3-1.2,14.2-6.1,17.9-13.6c3.5-7,4-14.5,2.8-22.1C452.1,964.1,444.1,957.3,431.8,957.5z"/>
			<path class="st0" d="M613.1,920.7c5.8,0,11.5,0.1,17.3,0c4.2-0.1,8.4-0.5,12.7-0.5c8.8-0.1,13.8,3.8,15.2,12.4
				c1.4,9-0.3,17.4-6.5,24.5c-2.9,3.3-6.8,5.3-11,4.7c-6.7-0.9-11.3,1.8-15.6,6.5c-9.5,10.5-19.4,20.8-29.1,31.2
				c-2,2.2-3.7,4.6-3.7,7.8c0,2,0.9,3.1,2.9,3.1c2.6,0.1,5.2,0,7.8,0c1.8,0,3.6-0.2,5.4-0.1c6.1,0.2,9.9,3.9,11,9.9
				c1,6,0.6,11.9-1.5,17.5c-3.5,9.8-12.4,14.6-23.7,13.8c-11.6-0.9-23.3-1.6-35-1.7c-7.2-0.1-14.5,1.1-21.8,1.6
				c-2.5,0.2-5.1,0.1-7.5-0.2c-6.3-0.9-10.3-5.4-11.3-11.7c-0.9-5.2-0.7-10.3,0.8-15.2c3.4-10.5,10.2-14.8,21.1-13.9
				c2.2,0.2,4.5,0.3,6.7,0.2c5.3-0.2,7.6-4.5,4.8-9c-2.4-3.9-5.1-7.6-7.7-11.4c-5.5-8-11.1-15.9-16.5-24c-2.3-3.5-5-5.4-9.4-4.3
				c-1.9,0.5-4.1,0.4-6.2,0.1c-4.8-0.7-7.1-4.4-7.9-8.5c-2.1-10.3-0.9-20.1,6.9-28c2.8-2.9,6.4-4.6,10.3-4.9c4.6-0.4,9.3,0.1,14,0.1
				c5.7,0,11.3,0,17-0.1c5.4,0,10.8-0.6,16.2-0.1c8.8,0.8,13.2,7.6,12.2,17.4c-0.9,8.4-4,15.4-11.8,19.7c-0.6,0.3-1.1,2.1-0.8,2.8
				c2.9,5.5,6,10.9,9,16.3c0.7,1.2,1.6,1.4,2.6,0.3c5-5.7,9.9-11.4,14.8-17.2c0.3-0.4,0.1-1.9-0.3-2.1c-6.4-3.5-7.1-9.3-6.3-15.6
				c0.7-6.4,2.4-12.3,7.5-16.8c3.5-3.1,7.6-4.4,12-4.8c1.9-0.2,3.8,0,5.7,0C613.1,920.4,613.1,920.6,613.1,920.7z"/>
		</g>
	</g>
</g>
<g>
	<path class="st0" d="M1503.7,467.1c0,0,0-0.1,0.1-0.1c0.2-0.1,0.3-0.1,0.5-0.2c2.1-0.8,3.8-2.1,4.5-4.3c1.4-4.7-0.3-10.8-7.9-11.4
		c-2-0.2-4.1-0.2-6.2-0.2c-2.8,0-5.6,0.1-8.4,0.1c-2.2,0-3.7,1.6-3.6,3.7c0.1,1.3,0.5,2.7,0.8,4c0.2,0.9,0.9,1.9,0.9,2.8
		c-0.1,4.6,0.7,9.3-0.8,13.9c-0.2,0.7-0.2,1.5-0.2,2.3c0,1.3,0.7,2.2,1.9,2.3c1.2,0.1,2.5,0.3,3.8,0.3c0.5,0,1,0,1.5-0.1
		c3.3-0.4,4-1.7,3-4.9c-0.2-0.8-0.4-1.6-0.5-2.4c-0.1-0.9,0.3-1.4,1.2-1.6c0.3-0.1,0.7-0.1,1-0.1c1.7,0,2.8,0.8,3.5,2.6
		c0.5,1.3,0.9,2.7,1.4,4c0.5,1.3,1.4,2.2,2.8,2.3c0.9,0.1,1.7,0.1,2.6,0.1c0.6,0,1.2,0,1.8-0.1c1.9-0.2,3.1-1.3,2.8-2.6
		C1509.4,473.5,1507.8,469.6,1503.7,467.1z M1500,461.7c-0.1,1.4-0.8,2.3-2.1,2.8c-0.2,0.1-0.5,0.2-0.7,0.2
		c-0.8,0.1-1.5,0.1-2.1,0.1c-1.8,0-2-0.6-2-3.9c0-2.4,0.2-3.1,1.8-3.1c0.4,0,0.9,0,1.6,0.1C1499.1,458.3,1500.1,459.4,1500,461.7z"
		/>
	<path class="st0" d="M1496.5,438.3c-0.1,0-0.1,0-0.2,0c-15,0-27.4,12.5-27.5,27.5c-0.1,15.1,12.4,27.6,27.6,27.6c0.1,0,0.1,0,0.2,0
		c15,0,27.4-12.4,27.4-27.5C1524.1,450.8,1511.7,438.4,1496.5,438.3z M1496.5,488.3C1496.5,488.3,1496.5,488.3,1496.5,488.3
		c-12.3,0-22.4-10.2-22.4-22.3c0-12.1,10.2-22.3,22.2-22.3c0.1,0,0.2,0,0.2,0c12.4,0.1,22.3,10.1,22.2,22.4
		C1518.8,478.2,1508.7,488.3,1496.5,488.3z"/>
</g>
<g>
	<path class="st0" d="M1482.2,299c5.4-25.2-0.5-46-17.6-62.1c-13.6-12.7-31.4-19.4-52.8-19.7c-10.9-0.2-21.9,0.2-33.1,0.7
		c-4.4-5.7-9.8-10.5-16-14.4c0.3-0.2,0.6-0.4,1-0.6c13-7.6,28.5-19.2,33.2-41.1c5.4-25.2-0.5-46-17.6-62.1
		c-13.6-12.7-31.4-19.4-52.8-19.7c-12.7-0.2-25.5,0.3-36.9,0.8c-5.6,0.2-11.9,0.5-18,0.7c-4.4,0.1-8.9,0.3-13.4,0.4
		c-12.2,0.4-24.8,0.8-37,0.6c-10.6-0.2-21.5-0.8-32-1.4l-0.3,0c-7.6-0.4-15.5-0.9-23.3-1.2c-11.1-0.4-20.1,4.7-25.9,8.6
		c-5.2,3.5-9.6,8.4-13.1,14.6c-7.2,1-13.2,4.5-17.3,7.3c-8.5,5.7-14.6,16.1-17.3,29.3c-2.4,11.7-1.5,23.8,2.3,31.7
		c4.9,10.1,12.9,15.4,23.3,15.5c3.2,0,6.4,0,9.5-0.1c3.8,0,7.8-0.1,11.6,0c2,0,2.9,0.2,3.3,0.3c0.1,0.4,0.2,1.2,0.1,3l-0.1,2.8
		c-0.2,5.9-0.3,12-1.3,17.8c-2.1,12.2-4.4,25-7.4,40.1c-0.2,0-0.4,0-0.6,0c-16.1,1.3-28.3,9.3-35.2,23.2
		c-13.4,1.6-23.4,8.7-28.9,20.8c-4.8,10.6-4.8,21.6-4.4,32c0.7,18.9,13.5,31.4,31.9,31.4c0.2,0,0.3,0,0.5,0
		c11.3-0.1,22.9-0.8,34.6-2.1c27.9-3.1,56.3-1.1,83.9,0.8l1,0.1c2.6,0.2,5.4,0.4,8.4,0.6c-1.6,9.3-3.5,19.2-5.7,30.4
		c-0.2,0-0.4,0-0.6,0c-16.1,1.3-28.3,9.3-35.2,23.2c-13.4,1.6-23.4,8.7-28.9,20.8c-4.8,10.6-4.8,21.6-4.4,32
		c0.7,18.9,13.5,31.4,31.9,31.4c0.2,0,0.3,0,0.5,0c11.3-0.1,22.9-0.8,34.6-2.1c27.9-3.1,56.3-1.1,83.9,0.8l1,0.1
		c10.8,0.8,21.2,1.4,31.3,1.4c12.9,0,25.4-1,38-4c7.6-1.8,15-4.4,21.8-7.7c4.8-0.6,9.3-1.5,13.7-2.5c42-9.9,68.7-39.2,71.2-78.3
		c1.8-27.3-8.9-49.6-29.4-62.3l1-0.6C1461.9,332.4,1477.5,320.8,1482.2,299z"/>
	<path class="st1" d="M1443.6,331c13.5-8,24.8-17.9,28.3-34.2c4.3-20,0.8-37.9-14.5-52.2c-12.8-12-28.8-16.6-45.8-16.9
		c-12.7-0.2-25.5,0.4-38.2,0.9c-6.1-9.8-15.5-17.4-28.2-21.8c-1.5-0.5-2.9-1.4-5.4-2.7c2.3-1.6,3.8-2.8,5.5-3.7
		c4.3-2.2,8.9-4,13.1-6.5c13.5-8,24.8-17.9,28.3-34.2c4.3-20,0.8-37.9-14.5-52.2c-12.8-12-28.8-16.6-45.8-16.9
		c-18.1-0.3-36.3,1-54.4,1.5c-16.9,0.5-33.9,1.3-50.9,1c-18.6-0.3-37.2-1.9-55.8-2.6c-7.3-0.3-13.7,2.9-19.6,6.9
		c-16.6,11.1-20.4,41.7-13.6,55.9c4,8.2,10.2,13.2,19.7,13.2c7.1,0,14.1-0.2,21.2-0.1c6.4,0.1,7.5,1.1,7.3,7.4
		c-0.2,7-0.3,14.2-1.4,21.1c-3.3,19.5-7,38.9-10.9,58.3c-1.3,6.2-4.5,8-11,8.1c-7.7,0.1-15.5-0.5-23.2,0.1c-12.4,1-21.9,7-27.2,18.6
		c-4.4,9.6-4.5,19.8-4.1,30.1c0.6,16.8,11.5,27.8,28.3,27.6c11.4-0.1,22.8-0.9,34.2-2.1c28.6-3.2,57.1-1.1,85.6,0.8
		c4.3,0.3,8.5,0.6,12.8,0.8c-3.1,17.7-6.4,35.4-10,53c-1.3,6.2-4.5,8-11,8.1c-7.7,0.1-15.5-0.5-23.2,0.1c-12.4,1-21.9,7-27.2,18.6
		c-4.4,9.6-4.5,19.8-4.1,30.1c0.6,16.8,11.5,27.8,28.3,27.6c11.4-0.1,22.8-0.9,34.2-2.1c28.6-3.2,57.1-1.1,85.6,0.8
		c22.9,1.6,45.6,2.8,68.2-2.5c34.3-8.1,60.7-31.2,63.1-68.8c1.7-27.1-10.6-49.4-36.5-58.4c-1.5-0.5-2.9-1.4-5.4-2.7
		c2.3-1.6,3.8-2.8,5.5-3.7C1434.9,335.2,1439.4,333.4,1443.6,331z M1285,268.5c-7.4,3.2-15.5,5.2-23.8,5.8c-4-0.3-8.1-0.4-12.1-0.8
		c-7-0.8-10.2-4.3-10.2-11.3c0.1-5,0.7-10,1.6-14.9c1.5-8.1,6.7-13,14.8-13.5c8.2-0.5,16.5-0.2,24.6,0.8c7.1,0.9,13.4,4.2,14.9,12.2
		C1296.6,255.2,1292.6,265.2,1285,268.5z M1286,192.3c-8.9,3.4-18.2,4.2-27.7,2.5c-4.1-0.7-6.4-3-6.9-6.9c-1.2-9-0.1-17.9,4.3-25.9
		c3.7-6.9,10.9-9.7,18.2-8.9c4.6,0.6,13.2,2.4,18.3,5.8C1304.2,167.1,1300.3,186.8,1286,192.3z M1370.3,405.6
		c-7.4,3.2-14.5,5.4-23.8,5.8c-0.1-0.2,0-0.1,0,0c-4-0.3-8.1-0.4-12.1-0.8c-7-0.8-10.2-4.3-10.2-11.3c0.1-5,0.7-10,1.6-14.9
		c1.5-8.1,6.7-13,14.8-13.5c8.2-0.5,16.5-0.2,24.6,0.8c7.1,0.9,13.4,4.2,14.9,12.2C1381.9,392.3,1378,402.3,1370.3,405.6z
		 M1371.4,329.4c-8.9,3.4-18.2,4.2-27.7,2.5c-3.1-0.5-5.2-2-6.2-4.4c-0.3-0.7-0.6-1.6-0.7-2.5c-1.2-9-0.1-17.9,4.3-25.9
		c3.7-6.9,10.9-9.7,18.2-8.9c4.8,1.4,10.1,2.1,14.6,3.9c1.3,0.5,2.5,1.1,3.7,1.9C1389.5,304.1,1385.7,323.9,1371.4,329.4z"/>
</g>
<g>
	<path class="st1" d="M1503.7,1085.8c0,0,0-0.1,0.1-0.1c0.2-0.1,0.3-0.1,0.5-0.2c2.1-0.8,3.8-2.1,4.5-4.3c1.4-4.7-0.3-10.8-7.9-11.4
		c-2-0.2-4.1-0.2-6.2-0.2c-2.8,0-5.6,0.1-8.4,0.1c-2.2,0-3.7,1.6-3.6,3.7c0.1,1.3,0.5,2.7,0.8,4c0.2,0.9,0.9,1.9,0.9,2.8
		c-0.1,4.6,0.7,9.3-0.8,13.9c-0.2,0.7-0.2,1.5-0.2,2.3c0,1.3,0.7,2.2,1.9,2.3c1.2,0.1,2.5,0.3,3.8,0.3c0.5,0,1,0,1.5-0.1
		c3.3-0.4,4-1.7,3-4.9c-0.2-0.8-0.4-1.6-0.5-2.4c-0.1-0.9,0.3-1.4,1.2-1.6c0.3-0.1,0.7-0.1,1-0.1c1.7,0,2.8,0.8,3.5,2.6
		c0.5,1.3,0.9,2.7,1.4,4c0.5,1.3,1.4,2.2,2.8,2.3c0.9,0.1,1.7,0.1,2.6,0.1c0.6,0,1.2,0,1.8-0.1c1.9-0.2,3.1-1.3,2.8-2.6
		C1509.4,1092.2,1507.8,1088.3,1503.7,1085.8z M1500,1080.4c-0.1,1.4-0.8,2.3-2.1,2.8c-0.2,0.1-0.5,0.2-0.7,0.2
		c-0.8,0.1-1.5,0.1-2.1,0.1c-1.8,0-2-0.6-2-3.9c0-2.4,0.2-3.1,1.8-3.1c0.4,0,0.9,0,1.6,0.1C1499.1,1076.9,1500.1,1078,1500,1080.4z"
		/>
	<path class="st1" d="M1496.5,1057c-0.1,0-0.1,0-0.2,0c-15,0-27.4,12.5-27.5,27.5c-0.1,15.1,12.4,27.6,27.6,27.6c0.1,0,0.1,0,0.2,0
		c15,0,27.4-12.4,27.4-27.5C1524.1,1069.5,1511.7,1057.1,1496.5,1057z M1496.5,1106.9C1496.5,1106.9,1496.5,1106.9,1496.5,1106.9
		c-12.3,0-22.4-10.2-22.4-22.3c0-12.1,10.2-22.3,22.2-22.3c0.1,0,0.2,0,0.2,0c12.4,0.1,22.3,10.1,22.2,22.4
		C1518.8,1096.9,1508.7,1106.9,1496.5,1106.9z"/>
</g>
<g>
	<path class="st1" d="M1482.2,917.6c5.4-25.2-0.5-46-17.6-62.1c-13.6-12.7-31.4-19.4-52.8-19.7c-10.9-0.2-21.9,0.2-33.1,0.7
		c-4.4-5.7-9.8-10.5-16-14.4c0.3-0.2,0.6-0.4,1-0.6c13-7.6,28.5-19.2,33.2-41.1c5.4-25.2-0.5-46-17.6-62.1
		c-13.6-12.7-31.4-19.4-52.8-19.7c-12.7-0.2-25.5,0.3-36.9,0.8c-5.6,0.2-11.9,0.5-18,0.7c-4.4,0.1-8.9,0.3-13.4,0.4
		c-12.2,0.4-24.8,0.8-37,0.6c-10.6-0.2-21.5-0.8-32-1.4l-0.3,0c-7.6-0.4-15.5-0.9-23.3-1.2c-11.1-0.4-20.1,4.7-25.9,8.6
		c-5.2,3.5-9.6,8.4-13.1,14.6c-7.2,1-13.2,4.5-17.3,7.3c-8.5,5.7-14.6,16.1-17.3,29.3c-2.4,11.7-1.5,23.8,2.3,31.7
		c4.9,10.1,12.9,15.4,23.3,15.5c3.2,0,6.4,0,9.5-0.1c3.8,0,7.8-0.1,11.6,0c2,0,2.9,0.2,3.3,0.3c0.1,0.4,0.2,1.2,0.1,3l-0.1,2.8
		c-0.2,5.9-0.3,12-1.3,17.8c-2.1,12.2-4.4,25-7.4,40.1c-0.2,0-0.4,0-0.6,0c-16.1,1.3-28.3,9.3-35.2,23.2
		c-13.4,1.6-23.4,8.7-28.9,20.8c-4.8,10.6-4.8,21.6-4.4,32c0.7,18.9,13.5,31.4,31.9,31.4c0.2,0,0.3,0,0.5,0
		c11.3-0.1,22.9-0.8,34.6-2.1c27.9-3.1,56.3-1.1,83.9,0.8l1,0.1c2.6,0.2,5.4,0.4,8.4,0.6c-1.6,9.3-3.5,19.2-5.7,30.4
		c-0.2,0-0.4,0-0.6,0c-16.1,1.3-28.3,9.3-35.2,23.2c-13.4,1.6-23.4,8.7-28.9,20.8c-4.8,10.6-4.8,21.6-4.4,32
		c0.7,18.9,13.5,31.4,31.9,31.4c0.2,0,0.3,0,0.5,0c11.3-0.1,22.9-0.8,34.6-2.1c27.9-3.1,56.3-1.1,83.9,0.8l1,0.1
		c10.8,0.8,21.2,1.4,31.3,1.4c12.9,0,25.4-1,38-4c7.6-1.8,15-4.4,21.8-7.7c4.8-0.6,9.3-1.5,13.7-2.5c42-9.9,68.7-39.2,71.2-78.3
		c1.8-27.3-8.9-49.6-29.4-62.3l1-0.6C1461.9,951,1477.5,939.5,1482.2,917.6z"/>
	<path class="st0" d="M1443.6,949.7c13.5-8,24.8-17.9,28.3-34.2c4.3-20,0.8-37.9-14.5-52.2c-12.8-12-28.8-16.6-45.8-16.9
		c-12.7-0.2-25.5,0.4-38.2,0.9c-6.1-9.8-15.5-17.4-28.2-21.8c-1.5-0.5-2.9-1.4-5.4-2.7c2.3-1.6,3.8-2.8,5.5-3.7
		c4.3-2.2,8.9-4,13.1-6.5c13.5-8,24.8-17.9,28.3-34.2c4.3-20,0.8-37.9-14.5-52.2c-12.8-12-28.8-16.6-45.8-16.9
		c-18.1-0.3-36.3,1-54.4,1.5c-16.9,0.5-33.9,1.3-50.9,1c-18.6-0.3-37.2-1.9-55.8-2.6c-7.3-0.3-13.7,2.9-19.6,6.9
		c-16.6,11.1-20.4,41.7-13.6,55.9c4,8.2,10.2,13.2,19.7,13.2c7.1,0,14.1-0.2,21.2-0.1c6.4,0.1,7.5,1.1,7.3,7.4
		c-0.2,7-0.3,14.2-1.4,21.1c-3.3,19.5-7,38.9-10.9,58.3c-1.3,6.2-4.5,8-11,8.1c-7.7,0.1-15.5-0.5-23.2,0.1c-12.4,1-21.9,7-27.2,18.6
		c-4.4,9.6-4.5,19.8-4.1,30.1c0.6,16.8,11.5,27.8,28.3,27.6c11.4-0.1,22.8-0.9,34.2-2.1c28.6-3.2,57.1-1.1,85.6,0.8
		c4.3,0.3,8.5,0.6,12.8,0.8c-3.1,17.7-6.4,35.4-10,53c-1.3,6.2-4.5,8-11,8.1c-7.7,0.1-15.5-0.5-23.2,0.1c-12.4,1-21.9,7-27.2,18.6
		c-4.4,9.6-4.5,19.8-4.1,30.1c0.6,16.8,11.5,27.8,28.3,27.6c11.4-0.1,22.8-0.9,34.2-2.1c28.6-3.2,57.1-1.1,85.6,0.8
		c22.9,1.6,45.6,2.8,68.2-2.5c34.3-8.1,60.7-31.2,63.1-68.8c1.7-27.1-10.6-49.4-36.5-58.4c-1.5-0.5-2.9-1.4-5.4-2.7
		c2.3-1.6,3.8-2.8,5.5-3.7C1434.9,953.9,1439.4,952.1,1443.6,949.7z M1285,887.2c-7.4,3.2-15.5,5.2-23.8,5.8
		c-4-0.3-8.1-0.4-12.1-0.8c-7-0.8-10.2-4.3-10.2-11.3c0.1-5,0.7-10,1.6-14.9c1.5-8.1,6.7-13,14.8-13.5c8.2-0.5,16.5-0.2,24.6,0.8
		c7.1,0.9,13.4,4.2,14.9,12.2C1296.6,873.9,1292.6,883.9,1285,887.2z M1286,811c-8.9,3.4-18.2,4.2-27.7,2.5c-4.1-0.7-6.4-3-6.9-6.9
		c-1.2-9-0.1-17.9,4.3-25.9c3.7-6.9,10.9-9.7,18.2-8.9c4.6,0.6,13.2,2.4,18.3,5.8C1304.2,785.7,1300.3,805.5,1286,811z
		 M1370.3,1024.3c-7.4,3.2-14.5,5.4-23.8,5.8c-0.1-0.2,0-0.1,0,0c-4-0.3-8.1-0.4-12.1-0.8c-7-0.8-10.2-4.3-10.2-11.3
		c0.1-5,0.7-10,1.6-14.9c1.5-8.1,6.7-13,14.8-13.5c8.2-0.5,16.5-0.2,24.6,0.8c7.1,0.9,13.4,4.2,14.9,12.2
		C1381.9,1011,1378,1021,1370.3,1024.3z M1371.4,948c-8.9,3.4-18.2,4.2-27.7,2.5c-3.1-0.5-5.2-2-6.2-4.4c-0.3-0.7-0.6-1.6-0.7-2.5
		c-1.2-9-0.1-17.9,4.3-25.9c3.7-6.9,10.9-9.7,18.2-8.9c4.8,1.4,10.1,2.1,14.6,3.9c1.3,0.5,2.5,1.1,3.7,1.9
		C1389.5,922.8,1385.7,942.6,1371.4,948z"/>
</g>
</svg>
