<?xml version="1.0" encoding="UTF-8"?>
<svg id="Capa_1" data-name="Capa 1" xmlns="http://www.w3.org/2000/svg" viewBox="0 0 1200 1200">
  <defs>
    <style>
      .cls-1 {
        fill: #ffecc7;
      }

      .cls-2 {
        fill: #78559a;
      }
    </style>
  </defs>
  <rect class="cls-1" y="0" width="1200" height="1200"/>
  <g>
    <path class="cls-2" d="m294.79,476.54c-5.57-1.99-11.31-3.51-18.73-5.79,8.52-2.74,15.82-4.6,22.75-7.4,33.12-13.35,47.42-47.21,33.84-80.23-9.69-23.57-30.09-34.62-53.04-36.92-36.95-3.71-74.26-3.94-111.45-4.9-11.25-.29-15.69,7.76-15.7,18.33-.02,73.77-.14,147.55.08,221.32.04,14.36,5.26,19.12,19.73,19.23,24.19.18,48.46,1.02,72.56-.5,16.83-1.06,33.96-3.94,50.03-8.96,28.62-8.93,42.04-28.43,42.04-56.37,0-28.84-13.65-47.67-42.11-57.84Zm-54.57,49.77c-9.2-.21-16.65-8.12-16.87-17.92-.24-10.39,7.37-18.85,17.05-18.97,9.7-.12,17.48,8.15,17.46,18.54-.02,10.28-7.98,18.56-17.64,18.34Zm.32-75.12c-9.6,0-16.74-7.25-17.11-17.37-.39-10.51,6.85-18.85,16.63-19.15,9.79-.3,17.61,7.64,17.81,18.08.2,10.39-7.37,18.44-17.33,18.44Z"/>
    <path class="cls-2" d="m1047.59,527.25c-3.69,20.54-6.54,40.86-11.47,60.67-1.21,4.87-8.8,10.68-14.19,11.57-40.54,6.69-74.01-21.85-74.22-62.94-.3-57.43-.14-114.86-.05-172.29.03-18.61,4.52-22.95,23.21-23.15,9.11-.1,18.22-.14,27.33.01,17.24.29,21.98,4.81,22.04,21.92.16,43.57.04,87.13.07,130.7.01,21.84,3.8,26.83,27.29,33.49Z"/>
    <path class="cls-2" d="m740.89,362.74c5.38-12.75.29-21.1-13.64-21.76-11.87-.56-23.79-.37-35.69-.11-14.24.31-19.28,5.41-19.57,19.49-.21,10.07-.04,20.14-.04,30.08-47.74-1-95.82-7.16-119.22,46.61-9.95,22.86-8.79,47.35-3.96,71.39,4.24,21.1,15.82,37.63,33.17,47.68-8.07,9.75-17.59,17.7-22.5,27.88-12.73,26.37,5.91,56.9,38.64,63.13,15.02,2.86,30.74,2.44,46.16,2.68,24.19.39,48.39.41,72.57-.05,14.81-.28,19.76-8.12,15-21.97-9.58-27.86-30.41-42.98-59.98-43.4-13.88-.19-27.78.3-41.63-.43-10.42-.55-18.77-4.97-21.31-16.96,18.61,0,36.44,1.13,54.07-.26,26.95-2.14,50.06-12.53,63.5-37.76,22.52-42.28,11.07-98.16-26.36-128.1,3.7-1.96,7.19-3.7,10.57-5.63,13.44-7.69,24.11-18.06,30.2-32.51Zm-99.81,134.45c-9.68-.33-17.08-8.91-16.6-19.26.47-10.07,7.79-17.59,17.12-17.6,9.69-.01,17.4,8.33,17.29,18.71-.11,10.29-8.15,18.48-17.82,18.16Z"/>
    <path class="cls-2" d="m529.72,525.46c-3.08-.16-6.15-.55-10.27-.93,0-20.32.32-40.08-.07-59.83-.72-37.3-26.26-66.7-62.97-69.9-23.61-2.06-47.53-.84-71.3-.63-9.4.08-15.61,5.23-17.43,14.79-2.51,13.23-5.32,26.42-7.22,39.74-2.07,14.48,2.72,19.9,17.3,20.19,15.86.31,31.73-.17,47.58.22,17.39.43,27.96,10.45,30.84,29.46-38.68-24.28-84.57-17.61-101.81,13.92-17.23,31.52-5.87,72.16,24.34,85.92,20.18,9.19,40.94,8.84,61.29.86,21.4-8.39,30.54-26.36,33.95-51.32,8.87,23.73,22.56,38.39,42.65,46.72,14.56,6.04,21.74,2.56,25.12-12.69,2.57-11.59,4.51-23.33,6.3-35.07,2.42-15.84-1.83-20.61-18.29-21.44Zm-93.03,24.6c-9.24-.41-16.52-8.42-16.56-18.22-.04-10.31,7.8-18.64,17.48-18.55,9.69.08,17.37,8.55,17.16,18.88-.22,10.31-8.31,18.32-18.07,17.88Z"/>
    <path class="cls-2" d="m798.4,702.81c7.34-28.43,8.04-29.02,37.91-29.03,7.14,0,14.28-.02,21.42,0,23.31.08,27.29,5.64,19.11,27.04-24.86,65.09-49.76,130.16-74.67,195.23q-12.97,33.89-49.38,33.88c-33.56,0-35.51-2.93-23.46-34.7,6.45-17.01,17.85-34.16,17.6-51.12-.25-16.95-12.16-33.76-19.09-50.57-12.98-31.48-26.13-62.88-39.07-94.38-7.6-18.52-3.27-25.11,16.49-25.35,11.9-.15,23.8.05,35.69-.03,12.91-.09,20.62,6.04,23.98,18.57,5.97,22.22,12.46,44.29,18.68,66.43,4.92-18.66,9.97-37.3,14.8-55.99Z"/>
    <path class="cls-2" d="m461.66,756.44c-5.57-1.99-11.31-3.51-18.73-5.79,8.52-2.74,15.82-4.6,22.75-7.4,33.12-13.35,47.42-47.21,33.84-80.23-9.69-23.57-30.09-34.62-53.04-36.92-36.95-3.71-74.26-3.94-111.45-4.9-11.25-.29-15.69,7.76-15.7,18.33-.02,73.77-.14,147.55.08,221.32.04,14.36,5.26,19.12,19.73,19.23,24.19.18,48.46,1.02,72.56-.5,16.83-1.06,33.96-3.94,50.03-8.96,28.62-8.93,42.04-28.43,42.04-56.37,0-28.84-13.65-47.67-42.11-57.84Zm-54.57,49.77c-9.2-.21-16.65-8.12-16.87-17.92-.24-10.39,7.37-18.85,17.05-18.97,9.7-.12,17.48,8.15,17.46,18.54-.02,10.28-7.98,18.56-17.64,18.34Zm.32-75.12c-9.6,0-16.74-7.25-17.11-17.37-.39-10.51,6.85-18.85,16.63-19.15,9.79-.3,17.61,7.64,17.81,18.08.2,10.39-7.37,18.44-17.33,18.44Z"/>
    <path class="cls-2" d="m693.68,752.67c-4.04-45.73-26.87-73.98-66.74-80.91-11.95-2.08-24.51-1.83-36.69-1.09-36.22,2.22-60.41,21.72-70.59,56.77-8.56,29.48-8.84,59.49-2.53,89.38,9.09,43.1,33.03,63.78,76.96,67.55,55.54,4.77,88.43-20.1,98.27-74.84,1.88-10.47,2.08-21.25,2.83-29.45-.58-10.8-.77-19.13-1.5-27.41Zm-90.55,40.88c-9.6,0-16.74-7.25-17.11-17.37-.39-10.51,6.85-18.85,16.63-19.15,9.79-.3,17.61,7.64,17.81,18.08.2,10.39-7.37,18.44-17.33,18.44Z"/>
    <path class="cls-2" d="m905.99,511.02c19.5-.08,26.39-7.72,24.77-27.23-.46-5.53-1.03-11.05-1.73-16.55-5.53-43.05-28.13-69.85-66.89-75.41-16.53-2.37-34.11-1.36-50.68,1.35-26.7,4.37-45.03,21.05-53.86,46.57-13.26,38.32-13.27,77.15.25,115.37,9.7,27.43,30.37,43.37,58.95,47.11,14.72,1.93,30.12,1.95,44.84.03,33.36-4.34,53.91-24.49,63.14-56.44,3.6-12.46-1.01-19.37-13.81-20.03-12.65-.65-25.46-1.25-38,.09-6.81.72-13.18,5.5-19.75,8.48-5.73,2.6-12.35,8.33-16.93,7-4.91-1.42-6.57-5.09-9.43-10.74-1.46-2.89-3.76-10.41-4.14-14.36-.24-2.5,1.65-4.71,4.16-4.85,3.19-.18,6.08-.34,8.96-.35,23.39-.06,46.77.04,70.16-.05Zm-83.33-40.91c.47-10.07,7.79-17.59,17.12-17.6,9.69-.01,17.4,8.33,17.29,18.71-.11,10.29-8.15,18.48-17.82,18.16-9.68-.33-17.08-8.91-16.6-19.26Z"/>
  </g>
</svg>